<svg xmlns="http://www.w3.org/2000/svg" version="1.1" xmlns:xlink="http://www.w3.org/1999/xlink" xmlns:svgjs="http://svgjs.com/svgjs" width="1440" height="560" preserveAspectRatio="none" viewBox="0 0 1440 560"><g mask="url(&quot;#SvgjsMask1065&quot;)" fill="none"><use xlink:href="#SvgjsG1070" transform="translate(0, 0)" fill="rgba(0, 0, 0, 0.05)"></use><use xlink:href="#SvgjsG1070" transform="translate(0, 420)" fill="rgba(0, 0, 0, 0.05)"></use><use xlink:href="#SvgjsG1070" transform="translate(420, 0)" fill="rgba(0, 0, 0, 0.05)"></use><use xlink:href="#SvgjsG1070" transform="translate(420, 420)" fill="rgba(0, 0, 0, 0.05)"></use><use xlink:href="#SvgjsG1070" transform="translate(840, 0)" fill="rgba(0, 0, 0, 0.05)"></use><use xlink:href="#SvgjsG1070" transform="translate(840, 420)" fill="rgba(0, 0, 0, 0.05)"></use><use xlink:href="#SvgjsG1070" transform="translate(1260, 0)" fill="rgba(0, 0, 0, 0.05)"></use><use xlink:href="#SvgjsG1070" transform="translate(1260, 420)" fill="rgba(0, 0, 0, 0.05)"></use></g><defs><mask id="SvgjsMask1065"><rect width="1440" height="560" fill="#ffffff"></rect></mask><g id="SvgjsG1068"><path d="M11.51 3.16C8.13 0.7 3.88 0.78 2.03 3.33c-0.91 1.25-1.07 2.86-0.61 4.47l-2.01 2.77 4.26 0.88c0.35 0.34 0.72 0.66 1.13 0.95 3.39 2.46 7.63 2.39 9.49-0.16 1.85-2.55 0.61-6.61-2.77-9.08zM4.87 6.88a1.07 1.07 0 1 1 1.25-1.73 1.07 1.07 0 0 1-1.25 1.73z m2.58 1.87a1.07 1.07 0 1 1 1.25-1.72 1.07 1.07 0 0 1-1.25 1.72z m2.54 1.85c-0.48-0.35-0.58-1.01-0.24-1.49s1.01-0.58 1.49-0.24 0.58 1.01 0.24 1.49a1.07 1.07 0 0 1-1.49 0.24z"></path></g><g id="SvgjsG1066"><path d="M11.27 16.72l0 0s-0.67-4.22-0.67-4.22a0.6 0.6 0 0 0-0.7-0.51L7.96 12.31c-0.76 0.12-1.04-0.68-1.48-2.35-0.29-1.1-0.55-2.49-0.62-3.9-0.05-0.99-0.02-1.96 0.77-2.08 0 0 1.95-0.31 1.95-0.31l0.01 0c0.35-0.05 0.56-0.38 0.5-0.7l0 0L8.4-1.38c-0.05-0.33-0.37-0.56-0.69-0.5L5.75-1.57C4.86-1.33 1.79 0.71 2.93 8.5c1.2 8.21 4.97 9.38 5.88 9.22 0 0 1.95-0.3 1.95-0.3l0 0c0.35-0.06 0.56-0.38 0.51-0.7z"></path></g><g id="SvgjsG1069"><path d="M10.91 17.61L-2.04 8.21 5.05-1.56l12.95 9.41-7.09 9.76z m-10.76-9.19l9.88 7.18L9.2 9.9l-1.07 0.18c-0.46 0.07-0.95-0.05-1.35-0.35l-0.01 0c-0.4-0.29-0.67-0.73-0.74-1.19l-0.16-1.09-5.72 0.97zM4.83 0.65l-4.84 6.66L5.7 6.34 4.83 0.65zM10.3 9.73l0.83 5.67L15.92 8.82l-5.62 0.91zM5.93 0.46l1.21 7.91c0.03 0.17 0.13 0.34 0.29 0.46l0 0c0.16 0.12 0.36 0.17 0.52 0.14L15.88 7.69 5.93 0.46z"></path></g><g id="SvgjsG1067"><path d="M10.83 1.78a1.3 1.3 0 1 0 2.11 1.53 1.3 1.3 0 1 0-2.11-1.53"></path><path d="M2.43 12.94a0.73 0.73 0 0 0 1.18 0.86l3.61-4.97 0.27 0.19-3.61 4.97a0.73 0.73 0 0 0 1.18 0.86l6.23-8.56 0.26 0.19-2.3 3.15c-0.46 0.64 0.37 1.24 0.83 0.6l2.34-3.22c0.51-0.7 0.6-1.69-0.22-2.29l-2.37-1.72C9.08 2.46 8.17 2.73 7.62 3.49l-2.36 3.24c-0.46 0.63 0.37 1.24 0.83 0.61L8.39 4.18 8.65 4.37l-6.22 8.57z"></path></g><g id="SvgjsG1070"><use xlink:href="#SvgjsG1066" transform="translate(0, 0) scale(2)" fill="rgba(0, 0, 0, 0.05)"></use><use xlink:href="#SvgjsG1067" transform="translate(0, 42) scale(2)" fill="rgba(0, 0, 0, 0.05)"></use><use xlink:href="#SvgjsG1067" transform="translate(0, 84) scale(2)" fill="rgba(0, 0, 0, 0.05)"></use><use xlink:href="#SvgjsG1067" transform="translate(0, 126) scale(2)" fill="rgba(0, 0, 0, 0.05)"></use><use xlink:href="#SvgjsG1067" transform="translate(0, 168) scale(2)" fill="rgba(0, 0, 0, 0.05)"></use><use xlink:href="#SvgjsG1067" transform="translate(0, 210) scale(2)" fill="rgba(0, 0, 0, 0.05)"></use><use xlink:href="#SvgjsG1067" transform="translate(0, 252) scale(2)" fill="rgba(0, 0, 0, 0.05)"></use><use xlink:href="#SvgjsG1066" transform="translate(0, 294) scale(2)" fill="rgba(0, 0, 0, 0.05)"></use><use xlink:href="#SvgjsG1066" transform="translate(0, 336) scale(2)" fill="rgba(0, 0, 0, 0.05)"></use><use xlink:href="#SvgjsG1068" transform="translate(0, 378) scale(2)" fill="rgba(0, 0, 0, 0.05)"></use><use xlink:href="#SvgjsG1069" transform="translate(42, 0) scale(2)" fill="rgba(0, 0, 0, 0.05)"></use><use xlink:href="#SvgjsG1067" transform="translate(42, 42) scale(2)" fill="rgba(0, 0, 0, 0.05)"></use><use xlink:href="#SvgjsG1066" transform="translate(42, 84) scale(2)" fill="rgba(0, 0, 0, 0.05)"></use><use xlink:href="#SvgjsG1068" transform="translate(42, 126) scale(2)" fill="rgba(0, 0, 0, 0.05)"></use><use xlink:href="#SvgjsG1069" transform="translate(42, 168) scale(2)" fill="rgba(0, 0, 0, 0.05)"></use><use xlink:href="#SvgjsG1066" transform="translate(42, 210) scale(2)" fill="rgba(0, 0, 0, 0.05)"></use><use xlink:href="#SvgjsG1069" transform="translate(42, 252) scale(2)" fill="rgba(0, 0, 0, 0.05)"></use><use xlink:href="#SvgjsG1069" transform="translate(42, 294) scale(2)" fill="rgba(0, 0, 0, 0.05)"></use><use xlink:href="#SvgjsG1068" transform="translate(42, 336) scale(2)" fill="rgba(0, 0, 0, 0.05)"></use><use xlink:href="#SvgjsG1068" transform="translate(42, 378) scale(2)" fill="rgba(0, 0, 0, 0.05)"></use><use xlink:href="#SvgjsG1069" transform="translate(84, 0) scale(2)" fill="rgba(0, 0, 0, 0.05)"></use><use xlink:href="#SvgjsG1066" transform="translate(84, 42) scale(2)" fill="rgba(0, 0, 0, 0.05)"></use><use xlink:href="#SvgjsG1068" transform="translate(84, 84) scale(2)" fill="rgba(0, 0, 0, 0.05)"></use><use xlink:href="#SvgjsG1066" transform="translate(84, 126) scale(2)" fill="rgba(0, 0, 0, 0.05)"></use><use xlink:href="#SvgjsG1066" transform="translate(84, 168) scale(2)" fill="rgba(0, 0, 0, 0.05)"></use><use xlink:href="#SvgjsG1066" transform="translate(84, 210) scale(2)" fill="rgba(0, 0, 0, 0.05)"></use><use xlink:href="#SvgjsG1067" transform="translate(84, 252) scale(2)" fill="rgba(0, 0, 0, 0.05)"></use><use xlink:href="#SvgjsG1068" transform="translate(84, 294) scale(2)" fill="rgba(0, 0, 0, 0.05)"></use><use xlink:href="#SvgjsG1068" transform="translate(84, 336) scale(2)" fill="rgba(0, 0, 0, 0.05)"></use><use xlink:href="#SvgjsG1068" transform="translate(84, 378) scale(2)" fill="rgba(0, 0, 0, 0.05)"></use><use xlink:href="#SvgjsG1067" transform="translate(126, 0) scale(2)" fill="rgba(0, 0, 0, 0.05)"></use><use xlink:href="#SvgjsG1066" transform="translate(126, 42) scale(2)" fill="rgba(0, 0, 0, 0.05)"></use><use xlink:href="#SvgjsG1068" transform="translate(126, 84) scale(2)" fill="rgba(0, 0, 0, 0.05)"></use><use xlink:href="#SvgjsG1066" transform="translate(126, 126) scale(2)" fill="rgba(0, 0, 0, 0.05)"></use><use xlink:href="#SvgjsG1066" transform="translate(126, 168) scale(2)" fill="rgba(0, 0, 0, 0.05)"></use><use xlink:href="#SvgjsG1066" transform="translate(126, 210) scale(2)" fill="rgba(0, 0, 0, 0.05)"></use><use xlink:href="#SvgjsG1068" transform="translate(126, 252) scale(2)" fill="rgba(0, 0, 0, 0.05)"></use><use xlink:href="#SvgjsG1068" transform="translate(126, 294) scale(2)" fill="rgba(0, 0, 0, 0.05)"></use><use xlink:href="#SvgjsG1069" transform="translate(126, 336) scale(2)" fill="rgba(0, 0, 0, 0.05)"></use><use xlink:href="#SvgjsG1068" transform="translate(126, 378) scale(2)" fill="rgba(0, 0, 0, 0.05)"></use><use xlink:href="#SvgjsG1069" transform="translate(168, 0) scale(2)" fill="rgba(0, 0, 0, 0.05)"></use><use xlink:href="#SvgjsG1067" transform="translate(168, 42) scale(2)" fill="rgba(0, 0, 0, 0.05)"></use><use xlink:href="#SvgjsG1069" transform="translate(168, 84) scale(2)" fill="rgba(0, 0, 0, 0.05)"></use><use xlink:href="#SvgjsG1069" transform="translate(168, 126) scale(2)" fill="rgba(0, 0, 0, 0.05)"></use><use xlink:href="#SvgjsG1066" transform="translate(168, 168) scale(2)" fill="rgba(0, 0, 0, 0.05)"></use><use xlink:href="#SvgjsG1068" transform="translate(168, 210) scale(2)" fill="rgba(0, 0, 0, 0.05)"></use><use xlink:href="#SvgjsG1067" transform="translate(168, 252) scale(2)" fill="rgba(0, 0, 0, 0.05)"></use><use xlink:href="#SvgjsG1067" transform="translate(168, 294) scale(2)" fill="rgba(0, 0, 0, 0.05)"></use><use xlink:href="#SvgjsG1067" transform="translate(168, 336) scale(2)" fill="rgba(0, 0, 0, 0.05)"></use><use xlink:href="#SvgjsG1067" transform="translate(168, 378) scale(2)" fill="rgba(0, 0, 0, 0.05)"></use><use xlink:href="#SvgjsG1068" transform="translate(210, 0) scale(2)" fill="rgba(0, 0, 0, 0.05)"></use><use xlink:href="#SvgjsG1067" transform="translate(210, 42) scale(2)" fill="rgba(0, 0, 0, 0.05)"></use><use xlink:href="#SvgjsG1069" transform="translate(210, 84) scale(2)" fill="rgba(0, 0, 0, 0.05)"></use><use xlink:href="#SvgjsG1069" transform="translate(210, 126) scale(2)" fill="rgba(0, 0, 0, 0.05)"></use><use xlink:href="#SvgjsG1069" transform="translate(210, 168) scale(2)" fill="rgba(0, 0, 0, 0.05)"></use><use xlink:href="#SvgjsG1069" transform="translate(210, 210) scale(2)" fill="rgba(0, 0, 0, 0.05)"></use><use xlink:href="#SvgjsG1069" transform="translate(210, 252) scale(2)" fill="rgba(0, 0, 0, 0.05)"></use><use xlink:href="#SvgjsG1067" transform="translate(210, 294) scale(2)" fill="rgba(0, 0, 0, 0.05)"></use><use xlink:href="#SvgjsG1067" transform="translate(210, 336) scale(2)" fill="rgba(0, 0, 0, 0.05)"></use><use xlink:href="#SvgjsG1069" transform="translate(210, 378) scale(2)" fill="rgba(0, 0, 0, 0.05)"></use><use xlink:href="#SvgjsG1068" transform="translate(252, 0) scale(2)" fill="rgba(0, 0, 0, 0.05)"></use><use xlink:href="#SvgjsG1068" transform="translate(252, 42) scale(2)" fill="rgba(0, 0, 0, 0.05)"></use><use xlink:href="#SvgjsG1066" transform="translate(252, 84) scale(2)" fill="rgba(0, 0, 0, 0.05)"></use><use xlink:href="#SvgjsG1068" transform="translate(252, 126) scale(2)" fill="rgba(0, 0, 0, 0.05)"></use><use xlink:href="#SvgjsG1069" transform="translate(252, 168) scale(2)" fill="rgba(0, 0, 0, 0.05)"></use><use xlink:href="#SvgjsG1067" transform="translate(252, 210) scale(2)" fill="rgba(0, 0, 0, 0.05)"></use><use xlink:href="#SvgjsG1069" transform="translate(252, 252) scale(2)" fill="rgba(0, 0, 0, 0.05)"></use><use xlink:href="#SvgjsG1066" transform="translate(252, 294) scale(2)" fill="rgba(0, 0, 0, 0.05)"></use><use xlink:href="#SvgjsG1069" transform="translate(252, 336) scale(2)" fill="rgba(0, 0, 0, 0.05)"></use><use xlink:href="#SvgjsG1069" transform="translate(252, 378) scale(2)" fill="rgba(0, 0, 0, 0.05)"></use><use xlink:href="#SvgjsG1069" transform="translate(294, 0) scale(2)" fill="rgba(0, 0, 0, 0.05)"></use><use xlink:href="#SvgjsG1066" transform="translate(294, 42) scale(2)" fill="rgba(0, 0, 0, 0.05)"></use><use xlink:href="#SvgjsG1069" transform="translate(294, 84) scale(2)" fill="rgba(0, 0, 0, 0.05)"></use><use xlink:href="#SvgjsG1066" transform="translate(294, 126) scale(2)" fill="rgba(0, 0, 0, 0.05)"></use><use xlink:href="#SvgjsG1069" transform="translate(294, 168) scale(2)" fill="rgba(0, 0, 0, 0.05)"></use><use xlink:href="#SvgjsG1067" transform="translate(294, 210) scale(2)" fill="rgba(0, 0, 0, 0.05)"></use><use xlink:href="#SvgjsG1068" transform="translate(294, 252) scale(2)" fill="rgba(0, 0, 0, 0.05)"></use><use xlink:href="#SvgjsG1068" transform="translate(294, 294) scale(2)" fill="rgba(0, 0, 0, 0.05)"></use><use xlink:href="#SvgjsG1066" transform="translate(294, 336) scale(2)" fill="rgba(0, 0, 0, 0.05)"></use><use xlink:href="#SvgjsG1067" transform="translate(294, 378) scale(2)" fill="rgba(0, 0, 0, 0.05)"></use><use xlink:href="#SvgjsG1067" transform="translate(336, 0) scale(2)" fill="rgba(0, 0, 0, 0.05)"></use><use xlink:href="#SvgjsG1068" transform="translate(336, 42) scale(2)" fill="rgba(0, 0, 0, 0.05)"></use><use xlink:href="#SvgjsG1068" transform="translate(336, 84) scale(2)" fill="rgba(0, 0, 0, 0.05)"></use><use xlink:href="#SvgjsG1067" transform="translate(336, 126) scale(2)" fill="rgba(0, 0, 0, 0.05)"></use><use xlink:href="#SvgjsG1069" transform="translate(336, 168) scale(2)" fill="rgba(0, 0, 0, 0.05)"></use><use xlink:href="#SvgjsG1067" transform="translate(336, 210) scale(2)" fill="rgba(0, 0, 0, 0.05)"></use><use xlink:href="#SvgjsG1068" transform="translate(336, 252) scale(2)" fill="rgba(0, 0, 0, 0.05)"></use><use xlink:href="#SvgjsG1069" transform="translate(336, 294) scale(2)" fill="rgba(0, 0, 0, 0.05)"></use><use xlink:href="#SvgjsG1068" transform="translate(336, 336) scale(2)" fill="rgba(0, 0, 0, 0.05)"></use><use xlink:href="#SvgjsG1068" transform="translate(336, 378) scale(2)" fill="rgba(0, 0, 0, 0.05)"></use><use xlink:href="#SvgjsG1069" transform="translate(378, 0) scale(2)" fill="rgba(0, 0, 0, 0.05)"></use><use xlink:href="#SvgjsG1069" transform="translate(378, 42) scale(2)" fill="rgba(0, 0, 0, 0.05)"></use><use xlink:href="#SvgjsG1067" transform="translate(378, 84) scale(2)" fill="rgba(0, 0, 0, 0.05)"></use><use xlink:href="#SvgjsG1068" transform="translate(378, 126) scale(2)" fill="rgba(0, 0, 0, 0.05)"></use><use xlink:href="#SvgjsG1068" transform="translate(378, 168) scale(2)" fill="rgba(0, 0, 0, 0.05)"></use><use xlink:href="#SvgjsG1066" transform="translate(378, 210) scale(2)" fill="rgba(0, 0, 0, 0.05)"></use><use xlink:href="#SvgjsG1066" transform="translate(378, 252) scale(2)" fill="rgba(0, 0, 0, 0.05)"></use><use xlink:href="#SvgjsG1068" transform="translate(378, 294) scale(2)" fill="rgba(0, 0, 0, 0.05)"></use><use xlink:href="#SvgjsG1067" transform="translate(378, 336) scale(2)" fill="rgba(0, 0, 0, 0.05)"></use><use xlink:href="#SvgjsG1067" transform="translate(378, 378) scale(2)" fill="rgba(0, 0, 0, 0.05)"></use></g></defs></svg>