<svg xmlns="http://www.w3.org/2000/svg" version="1.1" xmlns:xlink="http://www.w3.org/1999/xlink" xmlns:svgjs="http://svgjs.com/svgjs" width="1440" height="560" preserveAspectRatio="none" viewBox="0 0 1440 560"><g mask="url(&quot;#SvgjsMask1279&quot;)" fill="none"><use xlink:href="#SvgjsG1284" transform="translate(0, 0)" fill="rgba(0, 0, 0, 0.06)"></use><use xlink:href="#SvgjsG1284" transform="translate(0, 288)" fill="rgba(0, 0, 0, 0.06)"></use><use xlink:href="#SvgjsG1284" transform="translate(288, 0)" fill="rgba(0, 0, 0, 0.06)"></use><use xlink:href="#SvgjsG1284" transform="translate(288, 288)" fill="rgba(0, 0, 0, 0.06)"></use><use xlink:href="#SvgjsG1284" transform="translate(576, 0)" fill="rgba(0, 0, 0, 0.06)"></use><use xlink:href="#SvgjsG1284" transform="translate(576, 288)" fill="rgba(0, 0, 0, 0.06)"></use><use xlink:href="#SvgjsG1284" transform="translate(864, 0)" fill="rgba(0, 0, 0, 0.06)"></use><use xlink:href="#SvgjsG1284" transform="translate(864, 288)" fill="rgba(0, 0, 0, 0.06)"></use><use xlink:href="#SvgjsG1284" transform="translate(1152, 0)" fill="rgba(0, 0, 0, 0.06)"></use><use xlink:href="#SvgjsG1284" transform="translate(1152, 288)" fill="rgba(0, 0, 0, 0.06)"></use></g><defs><mask id="SvgjsMask1279"><rect width="1440" height="560" fill="#ffffff"></rect></mask><g id="SvgjsG1282"><path d="M7.58 1.18a1.3 1.3 0 1 0 2.58 0.36 1.3 1.3 0 1 0-2.58-0.36"></path><path d="M5.4 14.97a0.73 0.73 0 0 0 1.45 0.21l0.85-6.08 0.33 0.04-0.86 6.08a0.73 0.73 0 0 0 1.45 0.21l1.48-10.48 0.31 0.04-0.54 3.86c-0.11 0.78 0.9 0.92 1.01 0.14l0.56-3.94c0.12-0.86-0.27-1.77-1.27-1.91l-2.9-0.41C6.35 2.6 5.68 3.27 5.55 4.2l-0.56 3.97c-0.11 0.77 0.91 0.91 1.02 0.14L6.55 4.45 6.87 4.49l-1.47 10.48z"></path></g><g id="SvgjsG1280"><path d="M0.57 12.82l13.89 1.95L15.94 4.24 2.05 2.29l-1.48 10.53z m13.53-7.83L9.04 8.79c-0.52 0.39-1.32 0.27-1.71-0.26l-3.78-5.03 10.54 1.49z m-11.3-0.89l3.08 4.11-4.1 3.1 1.02-7.21z m-0.46 7.98l4.11-3.09 0.13 0.17c0.74 0.93 2.09 1.12 3.02 0.42l0.18-0.13 3.12 4.12-10.56-1.49z m11.34 0.9L10.58 8.87 14.69 5.77 13.67 12.98z" fill-rule="evenodd"></path></g><g id="SvgjsG1283"><path d="M14.98 14.17l0-0.01s-2.57-3.41-2.57-3.41a0.6 0.6 0 0 0-0.85-0.12L9.98 11.82c-0.61 0.46-1.23-0.11-2.41-1.38-0.78-0.84-1.65-1.94-2.37-3.15-0.51-0.85-0.94-1.72-0.3-2.2 0 0 1.58-1.19 1.58-1.19l0 0c0.28-0.21 0.31-0.6 0.12-0.85l0-0.01L3.95-0.47c-0.2-0.27-0.58-0.32-0.85-0.12L1.52 0.61C0.85 1.24-0.9 4.47 3.76 10.82c4.91 6.69 8.79 5.95 9.52 5.38 0 0 1.58-1.17 1.58-1.18l0 0c0.28-0.21 0.31-0.6 0.12-0.86z"></path></g><g id="SvgjsG1281"><path d="M8.83 2.08C4.69 1.5 0.97 3.56 0.53 6.68c-0.21 1.53 0.4 3.03 1.56 4.23l-0.47 3.4 4.17-1.23c0.46 0.14 0.95 0.24 1.45 0.31 4.14 0.58 7.86-1.48 8.3-4.6 0.44-3.12-2.56-6.13-6.71-6.71zM4.71 8.48a1.07 1.07 0 1 1 0.3-2.11 1.07 1.07 0 0 1-0.3 2.11z m3.16 0.44a1.07 1.07 0 1 1 0.29-2.11 1.07 1.07 0 0 1-0.29 2.11z m3.11 0.44c-0.58-0.08-0.99-0.62-0.91-1.2s0.62-0.99 1.21-0.91 0.99 0.62 0.9 1.2a1.07 1.07 0 0 1-1.2 0.91z"></path></g><g id="SvgjsG1284"><use xlink:href="#SvgjsG1280" transform="translate(0, 0) scale(1.2)" fill="rgba(0, 0, 0, 0.06)"></use><use xlink:href="#SvgjsG1281" transform="translate(0, 28.799999999999997) scale(1.2)" fill="rgba(0, 0, 0, 0.06)"></use><use xlink:href="#SvgjsG1280" transform="translate(0, 57.599999999999994) scale(1.2)" fill="rgba(0, 0, 0, 0.06)"></use><use xlink:href="#SvgjsG1282" transform="translate(0, 86.39999999999999) scale(1.2)" fill="rgba(0, 0, 0, 0.06)"></use><use xlink:href="#SvgjsG1280" transform="translate(0, 115.19999999999999) scale(1.2)" fill="rgba(0, 0, 0, 0.06)"></use><use xlink:href="#SvgjsG1280" transform="translate(0, 144) scale(1.2)" fill="rgba(0, 0, 0, 0.06)"></use><use xlink:href="#SvgjsG1282" transform="translate(0, 172.79999999999998) scale(1.2)" fill="rgba(0, 0, 0, 0.06)"></use><use xlink:href="#SvgjsG1282" transform="translate(0, 201.59999999999997) scale(1.2)" fill="rgba(0, 0, 0, 0.06)"></use><use xlink:href="#SvgjsG1281" transform="translate(0, 230.39999999999998) scale(1.2)" fill="rgba(0, 0, 0, 0.06)"></use><use xlink:href="#SvgjsG1283" transform="translate(0, 259.2) scale(1.2)" fill="rgba(0, 0, 0, 0.06)"></use><use xlink:href="#SvgjsG1280" transform="translate(28.799999999999997, 0) scale(1.2)" fill="rgba(0, 0, 0, 0.06)"></use><use xlink:href="#SvgjsG1283" transform="translate(28.799999999999997, 28.799999999999997) scale(1.2)" fill="rgba(0, 0, 0, 0.06)"></use><use xlink:href="#SvgjsG1282" transform="translate(28.799999999999997, 57.599999999999994) scale(1.2)" fill="rgba(0, 0, 0, 0.06)"></use><use xlink:href="#SvgjsG1281" transform="translate(28.799999999999997, 86.39999999999999) scale(1.2)" fill="rgba(0, 0, 0, 0.06)"></use><use xlink:href="#SvgjsG1280" transform="translate(28.799999999999997, 115.19999999999999) scale(1.2)" fill="rgba(0, 0, 0, 0.06)"></use><use xlink:href="#SvgjsG1280" transform="translate(28.799999999999997, 144) scale(1.2)" fill="rgba(0, 0, 0, 0.06)"></use><use xlink:href="#SvgjsG1280" transform="translate(28.799999999999997, 172.79999999999998) scale(1.2)" fill="rgba(0, 0, 0, 0.06)"></use><use xlink:href="#SvgjsG1280" transform="translate(28.799999999999997, 201.59999999999997) scale(1.2)" fill="rgba(0, 0, 0, 0.06)"></use><use xlink:href="#SvgjsG1282" transform="translate(28.799999999999997, 230.39999999999998) scale(1.2)" fill="rgba(0, 0, 0, 0.06)"></use><use xlink:href="#SvgjsG1282" transform="translate(28.799999999999997, 259.2) scale(1.2)" fill="rgba(0, 0, 0, 0.06)"></use><use xlink:href="#SvgjsG1282" transform="translate(57.599999999999994, 0) scale(1.2)" fill="rgba(0, 0, 0, 0.06)"></use><use xlink:href="#SvgjsG1281" transform="translate(57.599999999999994, 28.799999999999997) scale(1.2)" fill="rgba(0, 0, 0, 0.06)"></use><use xlink:href="#SvgjsG1281" transform="translate(57.599999999999994, 57.599999999999994) scale(1.2)" fill="rgba(0, 0, 0, 0.06)"></use><use xlink:href="#SvgjsG1281" transform="translate(57.599999999999994, 86.39999999999999) scale(1.2)" fill="rgba(0, 0, 0, 0.06)"></use><use xlink:href="#SvgjsG1281" transform="translate(57.599999999999994, 115.19999999999999) scale(1.2)" fill="rgba(0, 0, 0, 0.06)"></use><use xlink:href="#SvgjsG1280" transform="translate(57.599999999999994, 144) scale(1.2)" fill="rgba(0, 0, 0, 0.06)"></use><use xlink:href="#SvgjsG1281" transform="translate(57.599999999999994, 172.79999999999998) scale(1.2)" fill="rgba(0, 0, 0, 0.06)"></use><use xlink:href="#SvgjsG1281" transform="translate(57.599999999999994, 201.59999999999997) scale(1.2)" fill="rgba(0, 0, 0, 0.06)"></use><use xlink:href="#SvgjsG1282" transform="translate(57.599999999999994, 230.39999999999998) scale(1.2)" fill="rgba(0, 0, 0, 0.06)"></use><use xlink:href="#SvgjsG1282" transform="translate(57.599999999999994, 259.2) scale(1.2)" fill="rgba(0, 0, 0, 0.06)"></use><use xlink:href="#SvgjsG1280" transform="translate(86.39999999999999, 0) scale(1.2)" fill="rgba(0, 0, 0, 0.06)"></use><use xlink:href="#SvgjsG1281" transform="translate(86.39999999999999, 28.799999999999997) scale(1.2)" fill="rgba(0, 0, 0, 0.06)"></use><use xlink:href="#SvgjsG1281" transform="translate(86.39999999999999, 57.599999999999994) scale(1.2)" fill="rgba(0, 0, 0, 0.06)"></use><use xlink:href="#SvgjsG1281" transform="translate(86.39999999999999, 86.39999999999999) scale(1.2)" fill="rgba(0, 0, 0, 0.06)"></use><use xlink:href="#SvgjsG1282" transform="translate(86.39999999999999, 115.19999999999999) scale(1.2)" fill="rgba(0, 0, 0, 0.06)"></use><use xlink:href="#SvgjsG1283" transform="translate(86.39999999999999, 144) scale(1.2)" fill="rgba(0, 0, 0, 0.06)"></use><use xlink:href="#SvgjsG1283" transform="translate(86.39999999999999, 172.79999999999998) scale(1.2)" fill="rgba(0, 0, 0, 0.06)"></use><use xlink:href="#SvgjsG1281" transform="translate(86.39999999999999, 201.59999999999997) scale(1.2)" fill="rgba(0, 0, 0, 0.06)"></use><use xlink:href="#SvgjsG1281" transform="translate(86.39999999999999, 230.39999999999998) scale(1.2)" fill="rgba(0, 0, 0, 0.06)"></use><use xlink:href="#SvgjsG1283" transform="translate(86.39999999999999, 259.2) scale(1.2)" fill="rgba(0, 0, 0, 0.06)"></use><use xlink:href="#SvgjsG1282" transform="translate(115.19999999999999, 0) scale(1.2)" fill="rgba(0, 0, 0, 0.06)"></use><use xlink:href="#SvgjsG1280" transform="translate(115.19999999999999, 28.799999999999997) scale(1.2)" fill="rgba(0, 0, 0, 0.06)"></use><use xlink:href="#SvgjsG1283" transform="translate(115.19999999999999, 57.599999999999994) scale(1.2)" fill="rgba(0, 0, 0, 0.06)"></use><use xlink:href="#SvgjsG1283" transform="translate(115.19999999999999, 86.39999999999999) scale(1.2)" fill="rgba(0, 0, 0, 0.06)"></use><use xlink:href="#SvgjsG1281" transform="translate(115.19999999999999, 115.19999999999999) scale(1.2)" fill="rgba(0, 0, 0, 0.06)"></use><use xlink:href="#SvgjsG1282" transform="translate(115.19999999999999, 144) scale(1.2)" fill="rgba(0, 0, 0, 0.06)"></use><use xlink:href="#SvgjsG1283" transform="translate(115.19999999999999, 172.79999999999998) scale(1.2)" fill="rgba(0, 0, 0, 0.06)"></use><use xlink:href="#SvgjsG1283" transform="translate(115.19999999999999, 201.59999999999997) scale(1.2)" fill="rgba(0, 0, 0, 0.06)"></use><use xlink:href="#SvgjsG1282" transform="translate(115.19999999999999, 230.39999999999998) scale(1.2)" fill="rgba(0, 0, 0, 0.06)"></use><use xlink:href="#SvgjsG1280" transform="translate(115.19999999999999, 259.2) scale(1.2)" fill="rgba(0, 0, 0, 0.06)"></use><use xlink:href="#SvgjsG1283" transform="translate(144, 0) scale(1.2)" fill="rgba(0, 0, 0, 0.06)"></use><use xlink:href="#SvgjsG1282" transform="translate(144, 28.799999999999997) scale(1.2)" fill="rgba(0, 0, 0, 0.06)"></use><use xlink:href="#SvgjsG1281" transform="translate(144, 57.599999999999994) scale(1.2)" fill="rgba(0, 0, 0, 0.06)"></use><use xlink:href="#SvgjsG1281" transform="translate(144, 86.39999999999999) scale(1.2)" fill="rgba(0, 0, 0, 0.06)"></use><use xlink:href="#SvgjsG1282" transform="translate(144, 115.19999999999999) scale(1.2)" fill="rgba(0, 0, 0, 0.06)"></use><use xlink:href="#SvgjsG1281" transform="translate(144, 144) scale(1.2)" fill="rgba(0, 0, 0, 0.06)"></use><use xlink:href="#SvgjsG1282" transform="translate(144, 172.79999999999998) scale(1.2)" fill="rgba(0, 0, 0, 0.06)"></use><use xlink:href="#SvgjsG1280" transform="translate(144, 201.59999999999997) scale(1.2)" fill="rgba(0, 0, 0, 0.06)"></use><use xlink:href="#SvgjsG1283" transform="translate(144, 230.39999999999998) scale(1.2)" fill="rgba(0, 0, 0, 0.06)"></use><use xlink:href="#SvgjsG1280" transform="translate(144, 259.2) scale(1.2)" fill="rgba(0, 0, 0, 0.06)"></use><use xlink:href="#SvgjsG1280" transform="translate(172.79999999999998, 0) scale(1.2)" fill="rgba(0, 0, 0, 0.06)"></use><use xlink:href="#SvgjsG1280" transform="translate(172.79999999999998, 28.799999999999997) scale(1.2)" fill="rgba(0, 0, 0, 0.06)"></use><use xlink:href="#SvgjsG1282" transform="translate(172.79999999999998, 57.599999999999994) scale(1.2)" fill="rgba(0, 0, 0, 0.06)"></use><use xlink:href="#SvgjsG1283" transform="translate(172.79999999999998, 86.39999999999999) scale(1.2)" fill="rgba(0, 0, 0, 0.06)"></use><use xlink:href="#SvgjsG1280" transform="translate(172.79999999999998, 115.19999999999999) scale(1.2)" fill="rgba(0, 0, 0, 0.06)"></use><use xlink:href="#SvgjsG1281" transform="translate(172.79999999999998, 144) scale(1.2)" fill="rgba(0, 0, 0, 0.06)"></use><use xlink:href="#SvgjsG1283" transform="translate(172.79999999999998, 172.79999999999998) scale(1.2)" fill="rgba(0, 0, 0, 0.06)"></use><use xlink:href="#SvgjsG1282" transform="translate(172.79999999999998, 201.59999999999997) scale(1.2)" fill="rgba(0, 0, 0, 0.06)"></use><use xlink:href="#SvgjsG1280" transform="translate(172.79999999999998, 230.39999999999998) scale(1.2)" fill="rgba(0, 0, 0, 0.06)"></use><use xlink:href="#SvgjsG1283" transform="translate(172.79999999999998, 259.2) scale(1.2)" fill="rgba(0, 0, 0, 0.06)"></use><use xlink:href="#SvgjsG1283" transform="translate(201.59999999999997, 0) scale(1.2)" fill="rgba(0, 0, 0, 0.06)"></use><use xlink:href="#SvgjsG1280" transform="translate(201.59999999999997, 28.799999999999997) scale(1.2)" fill="rgba(0, 0, 0, 0.06)"></use><use xlink:href="#SvgjsG1282" transform="translate(201.59999999999997, 57.599999999999994) scale(1.2)" fill="rgba(0, 0, 0, 0.06)"></use><use xlink:href="#SvgjsG1280" transform="translate(201.59999999999997, 86.39999999999999) scale(1.2)" fill="rgba(0, 0, 0, 0.06)"></use><use xlink:href="#SvgjsG1283" transform="translate(201.59999999999997, 115.19999999999999) scale(1.2)" fill="rgba(0, 0, 0, 0.06)"></use><use xlink:href="#SvgjsG1281" transform="translate(201.59999999999997, 144) scale(1.2)" fill="rgba(0, 0, 0, 0.06)"></use><use xlink:href="#SvgjsG1280" transform="translate(201.59999999999997, 172.79999999999998) scale(1.2)" fill="rgba(0, 0, 0, 0.06)"></use><use xlink:href="#SvgjsG1281" transform="translate(201.59999999999997, 201.59999999999997) scale(1.2)" fill="rgba(0, 0, 0, 0.06)"></use><use xlink:href="#SvgjsG1280" transform="translate(201.59999999999997, 230.39999999999998) scale(1.2)" fill="rgba(0, 0, 0, 0.06)"></use><use xlink:href="#SvgjsG1280" transform="translate(201.59999999999997, 259.2) scale(1.2)" fill="rgba(0, 0, 0, 0.06)"></use><use xlink:href="#SvgjsG1281" transform="translate(230.39999999999998, 0) scale(1.2)" fill="rgba(0, 0, 0, 0.06)"></use><use xlink:href="#SvgjsG1282" transform="translate(230.39999999999998, 28.799999999999997) scale(1.2)" fill="rgba(0, 0, 0, 0.06)"></use><use xlink:href="#SvgjsG1283" transform="translate(230.39999999999998, 57.599999999999994) scale(1.2)" fill="rgba(0, 0, 0, 0.06)"></use><use xlink:href="#SvgjsG1282" transform="translate(230.39999999999998, 86.39999999999999) scale(1.2)" fill="rgba(0, 0, 0, 0.06)"></use><use xlink:href="#SvgjsG1280" transform="translate(230.39999999999998, 115.19999999999999) scale(1.2)" fill="rgba(0, 0, 0, 0.06)"></use><use xlink:href="#SvgjsG1282" transform="translate(230.39999999999998, 144) scale(1.2)" fill="rgba(0, 0, 0, 0.06)"></use><use xlink:href="#SvgjsG1282" transform="translate(230.39999999999998, 172.79999999999998) scale(1.2)" fill="rgba(0, 0, 0, 0.06)"></use><use xlink:href="#SvgjsG1280" transform="translate(230.39999999999998, 201.59999999999997) scale(1.2)" fill="rgba(0, 0, 0, 0.06)"></use><use xlink:href="#SvgjsG1281" transform="translate(230.39999999999998, 230.39999999999998) scale(1.2)" fill="rgba(0, 0, 0, 0.06)"></use><use xlink:href="#SvgjsG1283" transform="translate(230.39999999999998, 259.2) scale(1.2)" fill="rgba(0, 0, 0, 0.06)"></use><use xlink:href="#SvgjsG1282" transform="translate(259.2, 0) scale(1.2)" fill="rgba(0, 0, 0, 0.06)"></use><use xlink:href="#SvgjsG1280" transform="translate(259.2, 28.799999999999997) scale(1.2)" fill="rgba(0, 0, 0, 0.06)"></use><use xlink:href="#SvgjsG1283" transform="translate(259.2, 57.599999999999994) scale(1.2)" fill="rgba(0, 0, 0, 0.06)"></use><use xlink:href="#SvgjsG1283" transform="translate(259.2, 86.39999999999999) scale(1.2)" fill="rgba(0, 0, 0, 0.06)"></use><use xlink:href="#SvgjsG1283" transform="translate(259.2, 115.19999999999999) scale(1.2)" fill="rgba(0, 0, 0, 0.06)"></use><use xlink:href="#SvgjsG1282" transform="translate(259.2, 144) scale(1.2)" fill="rgba(0, 0, 0, 0.06)"></use><use xlink:href="#SvgjsG1282" transform="translate(259.2, 172.79999999999998) scale(1.2)" fill="rgba(0, 0, 0, 0.06)"></use><use xlink:href="#SvgjsG1283" transform="translate(259.2, 201.59999999999997) scale(1.2)" fill="rgba(0, 0, 0, 0.06)"></use><use xlink:href="#SvgjsG1281" transform="translate(259.2, 230.39999999999998) scale(1.2)" fill="rgba(0, 0, 0, 0.06)"></use><use xlink:href="#SvgjsG1281" transform="translate(259.2, 259.2) scale(1.2)" fill="rgba(0, 0, 0, 0.06)"></use></g></defs></svg>