<svg xmlns="http://www.w3.org/2000/svg" version="1.1" xmlns:xlink="http://www.w3.org/1999/xlink" xmlns:svgjs="http://svgjs.com/svgjs" width="1440" height="560" preserveAspectRatio="none" viewBox="0 0 1440 560"><g mask="url(&quot;#SvgjsMask2310&quot;)" fill="none"><use xlink:href="#SvgjsG2317" transform="translate(0, 0)" fill="rgba(0, 0, 0, 0.02)"></use><use xlink:href="#SvgjsG2317" transform="translate(0, 420)" fill="rgba(0, 0, 0, 0.02)"></use><use xlink:href="#SvgjsG2317" transform="translate(420, 0)" fill="rgba(0, 0, 0, 0.02)"></use><use xlink:href="#SvgjsG2317" transform="translate(420, 420)" fill="rgba(0, 0, 0, 0.02)"></use><use xlink:href="#SvgjsG2317" transform="translate(840, 0)" fill="rgba(0, 0, 0, 0.02)"></use><use xlink:href="#SvgjsG2317" transform="translate(840, 420)" fill="rgba(0, 0, 0, 0.02)"></use><use xlink:href="#SvgjsG2317" transform="translate(1260, 0)" fill="rgba(0, 0, 0, 0.02)"></use><use xlink:href="#SvgjsG2317" transform="translate(1260, 420)" fill="rgba(0, 0, 0, 0.02)"></use></g><defs><mask id="SvgjsMask2310"><rect width="1440" height="560" fill="#ffffff"></rect></mask><g id="SvgjsG2311"><path d="M9.38-0.88s-2.5 3.84 0.97 5.88S12.97 2.17 9.38-0.88m-5.35 14.52a2.32 2.32 0 0 1-2.11-0.33c-0.52-0.38-0.85-0.99-0.95-1.58-0.14-1.27 0.19-3.64 0.19-3.63C1.4 6.7 1.71 5.7 2.3 4.89c1.25-1.72 3.72-2.2 5.44-0.94 0.85 0.62 1.37 1.51 1.53 2.47a3.83 3.83 0 0 1 2.83 0.69c1.72 1.25 2.03 3.75 0.78 5.47-0.59 0.81-1.44 1.41-2.7 2.07 0 0-2.15 1.05-3.4 1.3-0.59 0.09-1.27-0.03-1.79-0.41a2.32 2.32 0 0 1-0.96-1.9" fill-rule="evenodd"></path></g><g id="SvgjsG2315"><path d="M11.45 1.95a0.29 0.29 0 0 1-0.04-0.37c0.06-0.09 0.17-0.13 0.27-0.12-0.04-0.09-0.03-0.2 0.03-0.29C11.81 1.04 11.99 1.01 12.11 1.1l1.16 0.84c0.13 0.09 0.16 0.27 0.06 0.41-0.07 0.09-0.17 0.13-0.27 0.11 0.04 0.09 0.04 0.21-0.02 0.3a0.29 0.29 0 0 1-0.37 0.08l-1.38 4.86c-0.09 0.31-0.25 0.62-0.46 0.9l-4.94 6.81a0.57 0.57 0 0 1-0.8 0.12L1.71 13.08A0.57 0.57 0 0 1 1.59 12.29L6.53 5.48c0.2-0.28 0.45-0.52 0.72-0.71l4.19-2.82z" fill-rule="evenodd"></path></g><g id="SvgjsG2312"><path d="M13.88 5.7L8.4 1.71C4.97-0.78 3.57 1.64 3.57 1.64l11.87 8.63S17.33 8.2 13.88 5.7zM2.07 10.43l5.48 3.98c3.44 2.5 4.83 0.06 4.84 0.06L0.52 5.85s-1.88 2.08 1.55 4.58z m10.59 2.58a1.26 1.26 0 0 0 1.76-0.28c0.41-0.56 0.28-1.34-0.28-1.75L3.25 3.07C2.69 2.66 1.9 2.78 1.5 3.34a1.26 1.26 0 0 0 0.28 1.76l10.88 7.91z" fill-rule="evenodd"></path></g><g id="SvgjsG2314"><path d="M8.38 15.76L5.27 13.5l3.22-4.44L19.15 6.21 6.23-3.17l0.71 11.05-3.25 4.47-3.05-2.21c-1.06-0.76-2.2 0.81-1.15 1.57L7.24 17.34c1.05 0.76 2.18-0.82 1.14-1.58zM9.89 5.43c0.4-0.55 1.17-0.67 1.73-0.27 0.55 0.4 0.68 1.18 0.27 1.72-0.4 0.56-1.18 0.68-1.72 0.28-0.56-0.4-0.68-1.17-0.28-1.73z"></path></g><g id="SvgjsG2313"><path d="M11.28 15.51L-0.9 6.67c-0.78 1.08-0.33 2.17 0.34 2.65l9.21 6.69c0.79 0.57 1.93 0.46 2.63-0.5zM15.36 6.13L6.47-0.32l-4.24 5.83c-0.57 0.79-0.35 1.91 0.39 2.45l5.76 4.18c0.83 0.61 1.91 0.32 2.43-0.4L11.17 11.26c1.64 1.19 3.73 0.82 4.77-0.62 1.07-1.47 0.77-3.52-0.58-4.51z m-0.47 3.75c-0.61 0.84-1.81 1.19-2.92 0.27L14.25 7.01l0.31 0.22 0 0c1.13 0.82 0.71 2.15 0.33 2.65l0 0z"></path></g><g id="SvgjsG2316"><path d="M13.48 7.34l-8.1 8.62L1.31 13 7 2.63l4.98 3.62L15.46 3.53 15.9 4.09l-3.32 2.59 0.9 0.66z" fill-rule="evenodd"></path></g><g id="SvgjsG2317"><use xlink:href="#SvgjsG2311" transform="translate(0, 0) scale(2)" fill="rgba(0, 0, 0, 0.02)"></use><use xlink:href="#SvgjsG2312" transform="translate(0, 42) scale(2)" fill="rgba(0, 0, 0, 0.02)"></use><use xlink:href="#SvgjsG2313" transform="translate(0, 84) scale(2)" fill="rgba(0, 0, 0, 0.02)"></use><use xlink:href="#SvgjsG2313" transform="translate(0, 126) scale(2)" fill="rgba(0, 0, 0, 0.02)"></use><use xlink:href="#SvgjsG2314" transform="translate(0, 168) scale(2)" fill="rgba(0, 0, 0, 0.02)"></use><use xlink:href="#SvgjsG2314" transform="translate(0, 210) scale(2)" fill="rgba(0, 0, 0, 0.02)"></use><use xlink:href="#SvgjsG2315" transform="translate(0, 252) scale(2)" fill="rgba(0, 0, 0, 0.02)"></use><use xlink:href="#SvgjsG2313" transform="translate(0, 294) scale(2)" fill="rgba(0, 0, 0, 0.02)"></use><use xlink:href="#SvgjsG2315" transform="translate(0, 336) scale(2)" fill="rgba(0, 0, 0, 0.02)"></use><use xlink:href="#SvgjsG2315" transform="translate(0, 378) scale(2)" fill="rgba(0, 0, 0, 0.02)"></use><use xlink:href="#SvgjsG2315" transform="translate(42, 0) scale(2)" fill="rgba(0, 0, 0, 0.02)"></use><use xlink:href="#SvgjsG2314" transform="translate(42, 42) scale(2)" fill="rgba(0, 0, 0, 0.02)"></use><use xlink:href="#SvgjsG2316" transform="translate(42, 84) scale(2)" fill="rgba(0, 0, 0, 0.02)"></use><use xlink:href="#SvgjsG2311" transform="translate(42, 126) scale(2)" fill="rgba(0, 0, 0, 0.02)"></use><use xlink:href="#SvgjsG2313" transform="translate(42, 168) scale(2)" fill="rgba(0, 0, 0, 0.02)"></use><use xlink:href="#SvgjsG2316" transform="translate(42, 210) scale(2)" fill="rgba(0, 0, 0, 0.02)"></use><use xlink:href="#SvgjsG2314" transform="translate(42, 252) scale(2)" fill="rgba(0, 0, 0, 0.02)"></use><use xlink:href="#SvgjsG2314" transform="translate(42, 294) scale(2)" fill="rgba(0, 0, 0, 0.02)"></use><use xlink:href="#SvgjsG2313" transform="translate(42, 336) scale(2)" fill="rgba(0, 0, 0, 0.02)"></use><use xlink:href="#SvgjsG2311" transform="translate(42, 378) scale(2)" fill="rgba(0, 0, 0, 0.02)"></use><use xlink:href="#SvgjsG2311" transform="translate(84, 0) scale(2)" fill="rgba(0, 0, 0, 0.02)"></use><use xlink:href="#SvgjsG2313" transform="translate(84, 42) scale(2)" fill="rgba(0, 0, 0, 0.02)"></use><use xlink:href="#SvgjsG2312" transform="translate(84, 84) scale(2)" fill="rgba(0, 0, 0, 0.02)"></use><use xlink:href="#SvgjsG2316" transform="translate(84, 126) scale(2)" fill="rgba(0, 0, 0, 0.02)"></use><use xlink:href="#SvgjsG2315" transform="translate(84, 168) scale(2)" fill="rgba(0, 0, 0, 0.02)"></use><use xlink:href="#SvgjsG2314" transform="translate(84, 210) scale(2)" fill="rgba(0, 0, 0, 0.02)"></use><use xlink:href="#SvgjsG2316" transform="translate(84, 252) scale(2)" fill="rgba(0, 0, 0, 0.02)"></use><use xlink:href="#SvgjsG2313" transform="translate(84, 294) scale(2)" fill="rgba(0, 0, 0, 0.02)"></use><use xlink:href="#SvgjsG2313" transform="translate(84, 336) scale(2)" fill="rgba(0, 0, 0, 0.02)"></use><use xlink:href="#SvgjsG2316" transform="translate(84, 378) scale(2)" fill="rgba(0, 0, 0, 0.02)"></use><use xlink:href="#SvgjsG2313" transform="translate(126, 0) scale(2)" fill="rgba(0, 0, 0, 0.02)"></use><use xlink:href="#SvgjsG2316" transform="translate(126, 42) scale(2)" fill="rgba(0, 0, 0, 0.02)"></use><use xlink:href="#SvgjsG2311" transform="translate(126, 84) scale(2)" fill="rgba(0, 0, 0, 0.02)"></use><use xlink:href="#SvgjsG2311" transform="translate(126, 126) scale(2)" fill="rgba(0, 0, 0, 0.02)"></use><use xlink:href="#SvgjsG2313" transform="translate(126, 168) scale(2)" fill="rgba(0, 0, 0, 0.02)"></use><use xlink:href="#SvgjsG2314" transform="translate(126, 210) scale(2)" fill="rgba(0, 0, 0, 0.02)"></use><use xlink:href="#SvgjsG2312" transform="translate(126, 252) scale(2)" fill="rgba(0, 0, 0, 0.02)"></use><use xlink:href="#SvgjsG2313" transform="translate(126, 294) scale(2)" fill="rgba(0, 0, 0, 0.02)"></use><use xlink:href="#SvgjsG2316" transform="translate(126, 336) scale(2)" fill="rgba(0, 0, 0, 0.02)"></use><use xlink:href="#SvgjsG2316" transform="translate(126, 378) scale(2)" fill="rgba(0, 0, 0, 0.02)"></use><use xlink:href="#SvgjsG2316" transform="translate(168, 0) scale(2)" fill="rgba(0, 0, 0, 0.02)"></use><use xlink:href="#SvgjsG2312" transform="translate(168, 42) scale(2)" fill="rgba(0, 0, 0, 0.02)"></use><use xlink:href="#SvgjsG2313" transform="translate(168, 84) scale(2)" fill="rgba(0, 0, 0, 0.02)"></use><use xlink:href="#SvgjsG2312" transform="translate(168, 126) scale(2)" fill="rgba(0, 0, 0, 0.02)"></use><use xlink:href="#SvgjsG2313" transform="translate(168, 168) scale(2)" fill="rgba(0, 0, 0, 0.02)"></use><use xlink:href="#SvgjsG2313" transform="translate(168, 210) scale(2)" fill="rgba(0, 0, 0, 0.02)"></use><use xlink:href="#SvgjsG2316" transform="translate(168, 252) scale(2)" fill="rgba(0, 0, 0, 0.02)"></use><use xlink:href="#SvgjsG2314" transform="translate(168, 294) scale(2)" fill="rgba(0, 0, 0, 0.02)"></use><use xlink:href="#SvgjsG2313" transform="translate(168, 336) scale(2)" fill="rgba(0, 0, 0, 0.02)"></use><use xlink:href="#SvgjsG2315" transform="translate(168, 378) scale(2)" fill="rgba(0, 0, 0, 0.02)"></use><use xlink:href="#SvgjsG2315" transform="translate(210, 0) scale(2)" fill="rgba(0, 0, 0, 0.02)"></use><use xlink:href="#SvgjsG2314" transform="translate(210, 42) scale(2)" fill="rgba(0, 0, 0, 0.02)"></use><use xlink:href="#SvgjsG2315" transform="translate(210, 84) scale(2)" fill="rgba(0, 0, 0, 0.02)"></use><use xlink:href="#SvgjsG2313" transform="translate(210, 126) scale(2)" fill="rgba(0, 0, 0, 0.02)"></use><use xlink:href="#SvgjsG2311" transform="translate(210, 168) scale(2)" fill="rgba(0, 0, 0, 0.02)"></use><use xlink:href="#SvgjsG2315" transform="translate(210, 210) scale(2)" fill="rgba(0, 0, 0, 0.02)"></use><use xlink:href="#SvgjsG2311" transform="translate(210, 252) scale(2)" fill="rgba(0, 0, 0, 0.02)"></use><use xlink:href="#SvgjsG2313" transform="translate(210, 294) scale(2)" fill="rgba(0, 0, 0, 0.02)"></use><use xlink:href="#SvgjsG2312" transform="translate(210, 336) scale(2)" fill="rgba(0, 0, 0, 0.02)"></use><use xlink:href="#SvgjsG2313" transform="translate(210, 378) scale(2)" fill="rgba(0, 0, 0, 0.02)"></use><use xlink:href="#SvgjsG2316" transform="translate(252, 0) scale(2)" fill="rgba(0, 0, 0, 0.02)"></use><use xlink:href="#SvgjsG2313" transform="translate(252, 42) scale(2)" fill="rgba(0, 0, 0, 0.02)"></use><use xlink:href="#SvgjsG2313" transform="translate(252, 84) scale(2)" fill="rgba(0, 0, 0, 0.02)"></use><use xlink:href="#SvgjsG2315" transform="translate(252, 126) scale(2)" fill="rgba(0, 0, 0, 0.02)"></use><use xlink:href="#SvgjsG2316" transform="translate(252, 168) scale(2)" fill="rgba(0, 0, 0, 0.02)"></use><use xlink:href="#SvgjsG2311" transform="translate(252, 210) scale(2)" fill="rgba(0, 0, 0, 0.02)"></use><use xlink:href="#SvgjsG2314" transform="translate(252, 252) scale(2)" fill="rgba(0, 0, 0, 0.02)"></use><use xlink:href="#SvgjsG2311" transform="translate(252, 294) scale(2)" fill="rgba(0, 0, 0, 0.02)"></use><use xlink:href="#SvgjsG2315" transform="translate(252, 336) scale(2)" fill="rgba(0, 0, 0, 0.02)"></use><use xlink:href="#SvgjsG2315" transform="translate(252, 378) scale(2)" fill="rgba(0, 0, 0, 0.02)"></use><use xlink:href="#SvgjsG2313" transform="translate(294, 0) scale(2)" fill="rgba(0, 0, 0, 0.02)"></use><use xlink:href="#SvgjsG2315" transform="translate(294, 42) scale(2)" fill="rgba(0, 0, 0, 0.02)"></use><use xlink:href="#SvgjsG2311" transform="translate(294, 84) scale(2)" fill="rgba(0, 0, 0, 0.02)"></use><use xlink:href="#SvgjsG2312" transform="translate(294, 126) scale(2)" fill="rgba(0, 0, 0, 0.02)"></use><use xlink:href="#SvgjsG2316" transform="translate(294, 168) scale(2)" fill="rgba(0, 0, 0, 0.02)"></use><use xlink:href="#SvgjsG2315" transform="translate(294, 210) scale(2)" fill="rgba(0, 0, 0, 0.02)"></use><use xlink:href="#SvgjsG2316" transform="translate(294, 252) scale(2)" fill="rgba(0, 0, 0, 0.02)"></use><use xlink:href="#SvgjsG2314" transform="translate(294, 294) scale(2)" fill="rgba(0, 0, 0, 0.02)"></use><use xlink:href="#SvgjsG2311" transform="translate(294, 336) scale(2)" fill="rgba(0, 0, 0, 0.02)"></use><use xlink:href="#SvgjsG2313" transform="translate(294, 378) scale(2)" fill="rgba(0, 0, 0, 0.02)"></use><use xlink:href="#SvgjsG2316" transform="translate(336, 0) scale(2)" fill="rgba(0, 0, 0, 0.02)"></use><use xlink:href="#SvgjsG2315" transform="translate(336, 42) scale(2)" fill="rgba(0, 0, 0, 0.02)"></use><use xlink:href="#SvgjsG2311" transform="translate(336, 84) scale(2)" fill="rgba(0, 0, 0, 0.02)"></use><use xlink:href="#SvgjsG2311" transform="translate(336, 126) scale(2)" fill="rgba(0, 0, 0, 0.02)"></use><use xlink:href="#SvgjsG2314" transform="translate(336, 168) scale(2)" fill="rgba(0, 0, 0, 0.02)"></use><use xlink:href="#SvgjsG2312" transform="translate(336, 210) scale(2)" fill="rgba(0, 0, 0, 0.02)"></use><use xlink:href="#SvgjsG2313" transform="translate(336, 252) scale(2)" fill="rgba(0, 0, 0, 0.02)"></use><use xlink:href="#SvgjsG2316" transform="translate(336, 294) scale(2)" fill="rgba(0, 0, 0, 0.02)"></use><use xlink:href="#SvgjsG2316" transform="translate(336, 336) scale(2)" fill="rgba(0, 0, 0, 0.02)"></use><use xlink:href="#SvgjsG2314" transform="translate(336, 378) scale(2)" fill="rgba(0, 0, 0, 0.02)"></use><use xlink:href="#SvgjsG2313" transform="translate(378, 0) scale(2)" fill="rgba(0, 0, 0, 0.02)"></use><use xlink:href="#SvgjsG2316" transform="translate(378, 42) scale(2)" fill="rgba(0, 0, 0, 0.02)"></use><use xlink:href="#SvgjsG2313" transform="translate(378, 84) scale(2)" fill="rgba(0, 0, 0, 0.02)"></use><use xlink:href="#SvgjsG2311" transform="translate(378, 126) scale(2)" fill="rgba(0, 0, 0, 0.02)"></use><use xlink:href="#SvgjsG2315" transform="translate(378, 168) scale(2)" fill="rgba(0, 0, 0, 0.02)"></use><use xlink:href="#SvgjsG2311" transform="translate(378, 210) scale(2)" fill="rgba(0, 0, 0, 0.02)"></use><use xlink:href="#SvgjsG2311" transform="translate(378, 252) scale(2)" fill="rgba(0, 0, 0, 0.02)"></use><use xlink:href="#SvgjsG2313" transform="translate(378, 294) scale(2)" fill="rgba(0, 0, 0, 0.02)"></use><use xlink:href="#SvgjsG2316" transform="translate(378, 336) scale(2)" fill="rgba(0, 0, 0, 0.02)"></use><use xlink:href="#SvgjsG2315" transform="translate(378, 378) scale(2)" fill="rgba(0, 0, 0, 0.02)"></use></g></defs></svg>